# xmcd CD database file generated by Grip 2.95
# 
# Track frame offsets:
#       183
#       11495
#       23723
#       37335
#       54173
#       67990
#       78435
#       90895
#       103935
#       115673
#       129028
#       141493
# 
# Disc length: 2061 seconds
# 
# Revision: 3
# Processed by: cddbd v1.4b41PL1 Copyright (c) Steve Scherf et al.
# Submitted via: Grip 2.95
# 
DISCID=90080b0c
DTITLE=John Lee Hooker - Boom Boom
DYEAR=1900
DGENRE=
TTITLE0=Boom Boom
TTITLE1=Whiskey And Wimmen
TTITLE2=One Bourbon, One Scotch, One Beer
TTITLE3=The Journey
TTITLE4=Bluebird
TTITLE5=Old Time Skimmy
TTITLE6=Drug Store Woman
TTITLE7=Troubles Blues
TTITLE8=Little Wheel
TTITLE9=Down At The Landing
TTITLE10=High Priced Woman
TTITLE11=Ground Hog Blues
EXTD=Blues Journey 1-0851-2
EXTT0=
EXTT1=
EXTT2=
EXTT3=
EXTT4=
EXTT5=
EXTT6=
EXTT7=
EXTT8=
EXTT9=
EXTT10=
EXTT11=
PLAYORDER=
